<svg xmlns="http://www.w3.org/2000/svg" xmlns:xlink="http://www.w3.org/1999/xlink" width="500" zoomAndPan="magnify" viewBox="0 0 375 374.999991" height="500" preserveAspectRatio="xMidYMid meet" version="1.0"><defs><g/><clipPath id="id1"><path d="M 375 0 L 375 375 L 0 375 Z M 375 0 " clip-rule="nonzero"/></clipPath><linearGradient x1="172.776426" gradientTransform="matrix(0.000000000000000097, -1.578283, 1.578283, 0.000000000000000097, 0.0000045, 374.999993)" y1="296.751267" x2="-53.478814" gradientUnits="userSpaceOnUse" y2="48.79921" id="id2"><stop stop-opacity="1" stop-color="rgb(32.199097%, 44.299316%, 100%)" offset="0"/><stop stop-opacity="1" stop-color="rgb(32.199097%, 44.299316%, 100%)" offset="0.125"/><stop stop-opacity="1" stop-color="rgb(32.199097%, 44.299316%, 100%)" offset="0.1875"/><stop stop-opacity="1" stop-color="rgb(32.199097%, 44.299316%, 100%)" offset="0.21875"/><stop stop-opacity="1" stop-color="rgb(32.21283%, 44.465637%, 99.961853%)" offset="0.234375"/><stop stop-opacity="1" stop-color="rgb(32.25708%, 44.963074%, 99.850464%)" offset="0.238281"/><stop stop-opacity="1" stop-color="rgb(32.287598%, 45.294189%, 99.777222%)" offset="0.242188"/><stop stop-opacity="1" stop-color="rgb(32.316589%, 45.625305%, 99.702454%)" offset="0.246094"/><stop stop-opacity="1" stop-color="rgb(32.347107%, 45.956421%, 99.629211%)" offset="0.25"/><stop stop-opacity="1" stop-color="rgb(32.376099%, 46.287537%, 99.554443%)" offset="0.253906"/><stop stop-opacity="1" stop-color="rgb(32.40509%, 46.618652%, 99.481201%)" offset="0.257813"/><stop stop-opacity="1" stop-color="rgb(32.434082%, 46.948242%, 99.406433%)" offset="0.261719"/><stop stop-opacity="1" stop-color="rgb(32.4646%, 47.279358%, 99.333191%)" offset="0.265625"/><stop stop-opacity="1" stop-color="rgb(32.493591%, 47.610474%, 99.259949%)" offset="0.269531"/><stop stop-opacity="1" stop-color="rgb(32.522583%, 47.941589%, 99.186707%)" offset="0.273438"/><stop stop-opacity="1" stop-color="rgb(32.551575%, 48.272705%, 99.111938%)" offset="0.277344"/><stop stop-opacity="1" stop-color="rgb(32.582092%, 48.603821%, 99.038696%)" offset="0.28125"/><stop stop-opacity="1" stop-color="rgb(32.611084%, 48.933411%, 98.963928%)" offset="0.285156"/><stop stop-opacity="1" stop-color="rgb(32.640076%, 49.264526%, 98.890686%)" offset="0.289062"/><stop stop-opacity="1" stop-color="rgb(32.669067%, 49.595642%, 98.815918%)" offset="0.292969"/><stop stop-opacity="1" stop-color="rgb(32.699585%, 49.926758%, 98.742676%)" offset="0.296875"/><stop stop-opacity="1" stop-color="rgb(32.728577%, 50.257874%, 98.667908%)" offset="0.300781"/><stop stop-opacity="1" stop-color="rgb(32.757568%, 50.588989%, 98.594666%)" offset="0.304688"/><stop stop-opacity="1" stop-color="rgb(32.78656%, 50.920105%, 98.521423%)" offset="0.308594"/><stop stop-opacity="1" stop-color="rgb(32.817078%, 51.251221%, 98.448181%)" offset="0.3125"/><stop stop-opacity="1" stop-color="rgb(32.846069%, 51.580811%, 98.373413%)" offset="0.316406"/><stop stop-opacity="1" stop-color="rgb(32.875061%, 51.911926%, 98.300171%)" offset="0.320313"/><stop stop-opacity="1" stop-color="rgb(32.904053%, 52.243042%, 98.225403%)" offset="0.324219"/><stop stop-opacity="1" stop-color="rgb(32.93457%, 52.574158%, 98.152161%)" offset="0.328125"/><stop stop-opacity="1" stop-color="rgb(32.963562%, 52.905273%, 98.077393%)" offset="0.332031"/><stop stop-opacity="1" stop-color="rgb(32.992554%, 53.236389%, 98.00415%)" offset="0.335938"/><stop stop-opacity="1" stop-color="rgb(33.021545%, 53.565979%, 97.929382%)" offset="0.339844"/><stop stop-opacity="1" stop-color="rgb(33.052063%, 53.897095%, 97.85614%)" offset="0.34375"/><stop stop-opacity="1" stop-color="rgb(33.081055%, 54.22821%, 97.781372%)" offset="0.347656"/><stop stop-opacity="1" stop-color="rgb(33.110046%, 54.559326%, 97.70813%)" offset="0.351562"/><stop stop-opacity="1" stop-color="rgb(33.139038%, 54.890442%, 97.634888%)" offset="0.355469"/><stop stop-opacity="1" stop-color="rgb(33.169556%, 55.221558%, 97.561646%)" offset="0.359375"/><stop stop-opacity="1" stop-color="rgb(33.198547%, 55.552673%, 97.486877%)" offset="0.363281"/><stop stop-opacity="1" stop-color="rgb(33.229065%, 55.883789%, 97.413635%)" offset="0.367188"/><stop stop-opacity="1" stop-color="rgb(33.258057%, 56.213379%, 97.338867%)" offset="0.371094"/><stop stop-opacity="1" stop-color="rgb(33.287048%, 56.544495%, 97.265625%)" offset="0.375"/><stop stop-opacity="1" stop-color="rgb(33.31604%, 56.87561%, 97.190857%)" offset="0.378906"/><stop stop-opacity="1" stop-color="rgb(33.346558%, 57.206726%, 97.117615%)" offset="0.382812"/><stop stop-opacity="1" stop-color="rgb(33.375549%, 57.537842%, 97.042847%)" offset="0.386719"/><stop stop-opacity="1" stop-color="rgb(33.404541%, 57.868958%, 96.969604%)" offset="0.390625"/><stop stop-opacity="1" stop-color="rgb(33.433533%, 58.198547%, 96.894836%)" offset="0.394531"/><stop stop-opacity="1" stop-color="rgb(33.46405%, 58.529663%, 96.821594%)" offset="0.398438"/><stop stop-opacity="1" stop-color="rgb(33.493042%, 58.860779%, 96.748352%)" offset="0.402344"/><stop stop-opacity="1" stop-color="rgb(33.522034%, 59.191895%, 96.67511%)" offset="0.40625"/><stop stop-opacity="1" stop-color="rgb(33.551025%, 59.52301%, 96.600342%)" offset="0.410156"/><stop stop-opacity="1" stop-color="rgb(33.581543%, 59.854126%, 96.5271%)" offset="0.414062"/><stop stop-opacity="1" stop-color="rgb(33.610535%, 60.185242%, 96.452332%)" offset="0.417969"/><stop stop-opacity="1" stop-color="rgb(33.639526%, 60.516357%, 96.379089%)" offset="0.421875"/><stop stop-opacity="1" stop-color="rgb(33.668518%, 60.845947%, 96.304321%)" offset="0.425781"/><stop stop-opacity="1" stop-color="rgb(33.699036%, 61.177063%, 96.231079%)" offset="0.429688"/><stop stop-opacity="1" stop-color="rgb(33.728027%, 61.508179%, 96.156311%)" offset="0.433594"/><stop stop-opacity="1" stop-color="rgb(33.757019%, 61.839294%, 96.083069%)" offset="0.4375"/><stop stop-opacity="1" stop-color="rgb(33.786011%, 62.17041%, 96.009827%)" offset="0.441406"/><stop stop-opacity="1" stop-color="rgb(33.816528%, 62.501526%, 95.936584%)" offset="0.445313"/><stop stop-opacity="1" stop-color="rgb(33.84552%, 62.832642%, 95.861816%)" offset="0.449219"/><stop stop-opacity="1" stop-color="rgb(33.874512%, 63.163757%, 95.788574%)" offset="0.453125"/><stop stop-opacity="1" stop-color="rgb(33.903503%, 63.493347%, 95.713806%)" offset="0.457031"/><stop stop-opacity="1" stop-color="rgb(33.934021%, 63.824463%, 95.640564%)" offset="0.460938"/><stop stop-opacity="1" stop-color="rgb(33.963013%, 64.155579%, 95.565796%)" offset="0.464844"/><stop stop-opacity="1" stop-color="rgb(33.992004%, 64.486694%, 95.492554%)" offset="0.46875"/><stop stop-opacity="1" stop-color="rgb(34.020996%, 64.81781%, 95.417786%)" offset="0.472656"/><stop stop-opacity="1" stop-color="rgb(34.051514%, 65.148926%, 95.344543%)" offset="0.476563"/><stop stop-opacity="1" stop-color="rgb(34.080505%, 65.478516%, 95.269775%)" offset="0.480469"/><stop stop-opacity="1" stop-color="rgb(34.109497%, 65.809631%, 95.196533%)" offset="0.484375"/><stop stop-opacity="1" stop-color="rgb(34.138489%, 66.140747%, 95.123291%)" offset="0.488281"/><stop stop-opacity="1" stop-color="rgb(34.169006%, 66.471863%, 95.050049%)" offset="0.492188"/><stop stop-opacity="1" stop-color="rgb(34.197998%, 66.802979%, 94.975281%)" offset="0.496094"/><stop stop-opacity="1" stop-color="rgb(34.228516%, 67.134094%, 94.902039%)" offset="0.5"/><stop stop-opacity="1" stop-color="rgb(34.257507%, 67.46521%, 94.827271%)" offset="0.503906"/><stop stop-opacity="1" stop-color="rgb(34.286499%, 67.796326%, 94.754028%)" offset="0.507812"/><stop stop-opacity="1" stop-color="rgb(34.315491%, 68.125916%, 94.67926%)" offset="0.511719"/><stop stop-opacity="1" stop-color="rgb(34.346008%, 68.457031%, 94.606018%)" offset="0.515625"/><stop stop-opacity="1" stop-color="rgb(34.375%, 68.788147%, 94.53125%)" offset="0.519531"/><stop stop-opacity="1" stop-color="rgb(34.403992%, 69.119263%, 94.458008%)" offset="0.523438"/><stop stop-opacity="1" stop-color="rgb(34.432983%, 69.450378%, 94.384766%)" offset="0.527344"/><stop stop-opacity="1" stop-color="rgb(34.463501%, 69.781494%, 94.311523%)" offset="0.53125"/><stop stop-opacity="1" stop-color="rgb(34.492493%, 70.111084%, 94.236755%)" offset="0.535156"/><stop stop-opacity="1" stop-color="rgb(34.521484%, 70.4422%, 94.163513%)" offset="0.539062"/><stop stop-opacity="1" stop-color="rgb(34.550476%, 70.773315%, 94.088745%)" offset="0.542969"/><stop stop-opacity="1" stop-color="rgb(34.580994%, 71.104431%, 94.015503%)" offset="0.546875"/><stop stop-opacity="1" stop-color="rgb(34.609985%, 71.435547%, 93.940735%)" offset="0.550781"/><stop stop-opacity="1" stop-color="rgb(34.638977%, 71.766663%, 93.867493%)" offset="0.554688"/><stop stop-opacity="1" stop-color="rgb(34.667969%, 72.097778%, 93.792725%)" offset="0.558594"/><stop stop-opacity="1" stop-color="rgb(34.698486%, 72.428894%, 93.719482%)" offset="0.5625"/><stop stop-opacity="1" stop-color="rgb(34.727478%, 72.758484%, 93.644714%)" offset="0.566406"/><stop stop-opacity="1" stop-color="rgb(34.75647%, 73.0896%, 93.571472%)" offset="0.570312"/><stop stop-opacity="1" stop-color="rgb(34.785461%, 73.420715%, 93.49823%)" offset="0.574219"/><stop stop-opacity="1" stop-color="rgb(34.815979%, 73.751831%, 93.424988%)" offset="0.578125"/><stop stop-opacity="1" stop-color="rgb(34.844971%, 74.082947%, 93.35022%)" offset="0.582031"/><stop stop-opacity="1" stop-color="rgb(34.873962%, 74.414062%, 93.276978%)" offset="0.585938"/><stop stop-opacity="1" stop-color="rgb(34.902954%, 74.743652%, 93.202209%)" offset="0.589844"/><stop stop-opacity="1" stop-color="rgb(34.933472%, 75.074768%, 93.128967%)" offset="0.59375"/><stop stop-opacity="1" stop-color="rgb(34.962463%, 75.405884%, 93.054199%)" offset="0.597656"/><stop stop-opacity="1" stop-color="rgb(34.991455%, 75.737%, 92.980957%)" offset="0.601562"/><stop stop-opacity="1" stop-color="rgb(35.020447%, 76.068115%, 92.906189%)" offset="0.605469"/><stop stop-opacity="1" stop-color="rgb(35.050964%, 76.399231%, 92.832947%)" offset="0.609375"/><stop stop-opacity="1" stop-color="rgb(35.079956%, 76.730347%, 92.759705%)" offset="0.613281"/><stop stop-opacity="1" stop-color="rgb(35.110474%, 77.061462%, 92.686462%)" offset="0.617187"/><stop stop-opacity="1" stop-color="rgb(35.139465%, 77.391052%, 92.611694%)" offset="0.621094"/><stop stop-opacity="1" stop-color="rgb(35.168457%, 77.722168%, 92.538452%)" offset="0.625"/><stop stop-opacity="1" stop-color="rgb(35.197449%, 78.053284%, 92.463684%)" offset="0.628906"/><stop stop-opacity="1" stop-color="rgb(35.227966%, 78.384399%, 92.390442%)" offset="0.632813"/><stop stop-opacity="1" stop-color="rgb(35.256958%, 78.715515%, 92.315674%)" offset="0.636719"/><stop stop-opacity="1" stop-color="rgb(35.28595%, 79.046631%, 92.242432%)" offset="0.640625"/><stop stop-opacity="1" stop-color="rgb(35.314941%, 79.377747%, 92.167664%)" offset="0.644531"/><stop stop-opacity="1" stop-color="rgb(35.345459%, 79.708862%, 92.094421%)" offset="0.648438"/><stop stop-opacity="1" stop-color="rgb(35.374451%, 80.038452%, 92.019653%)" offset="0.652344"/><stop stop-opacity="1" stop-color="rgb(35.403442%, 80.369568%, 91.946411%)" offset="0.65625"/><stop stop-opacity="1" stop-color="rgb(35.432434%, 80.700684%, 91.873169%)" offset="0.660156"/><stop stop-opacity="1" stop-color="rgb(35.462952%, 81.031799%, 91.799927%)" offset="0.664063"/><stop stop-opacity="1" stop-color="rgb(35.491943%, 81.362915%, 91.725159%)" offset="0.667969"/><stop stop-opacity="1" stop-color="rgb(35.520935%, 81.694031%, 91.651917%)" offset="0.671875"/><stop stop-opacity="1" stop-color="rgb(35.549927%, 82.023621%, 91.577148%)" offset="0.675781"/><stop stop-opacity="1" stop-color="rgb(35.580444%, 82.354736%, 91.503906%)" offset="0.679688"/><stop stop-opacity="1" stop-color="rgb(35.609436%, 82.685852%, 91.429138%)" offset="0.683594"/><stop stop-opacity="1" stop-color="rgb(35.638428%, 83.016968%, 91.355896%)" offset="0.6875"/><stop stop-opacity="1" stop-color="rgb(35.667419%, 83.348083%, 91.281128%)" offset="0.691406"/><stop stop-opacity="1" stop-color="rgb(35.697937%, 83.679199%, 91.207886%)" offset="0.695312"/><stop stop-opacity="1" stop-color="rgb(35.726929%, 84.010315%, 91.133118%)" offset="0.699219"/><stop stop-opacity="1" stop-color="rgb(35.75592%, 84.341431%, 91.059875%)" offset="0.703125"/><stop stop-opacity="1" stop-color="rgb(35.784912%, 84.671021%, 90.986633%)" offset="0.707031"/><stop stop-opacity="1" stop-color="rgb(35.81543%, 85.002136%, 90.913391%)" offset="0.710938"/><stop stop-opacity="1" stop-color="rgb(35.844421%, 85.333252%, 90.838623%)" offset="0.714844"/><stop stop-opacity="1" stop-color="rgb(35.873413%, 85.664368%, 90.765381%)" offset="0.71875"/><stop stop-opacity="1" stop-color="rgb(35.902405%, 85.995483%, 90.690613%)" offset="0.722656"/><stop stop-opacity="1" stop-color="rgb(35.932922%, 86.326599%, 90.617371%)" offset="0.726562"/><stop stop-opacity="1" stop-color="rgb(35.961914%, 86.656189%, 90.542603%)" offset="0.730469"/><stop stop-opacity="1" stop-color="rgb(35.990906%, 86.987305%, 90.46936%)" offset="0.734375"/><stop stop-opacity="1" stop-color="rgb(36.019897%, 87.31842%, 90.394592%)" offset="0.738281"/><stop stop-opacity="1" stop-color="rgb(36.050415%, 87.649536%, 90.32135%)" offset="0.742188"/><stop stop-opacity="1" stop-color="rgb(36.074829%, 87.924194%, 90.260315%)" offset="0.746094"/><stop stop-opacity="1" stop-color="rgb(36.099243%, 88.198853%, 90.19928%)" offset="0.75"/><stop stop-opacity="1" stop-color="rgb(36.099243%, 88.198853%, 90.19928%)" offset="1"/></linearGradient></defs><rect x="-37.5" width="450" fill="#ffffff" y="-37.499999" height="449.999989" fill-opacity="1"/><rect x="-37.5" width="450" fill="#000000" y="-37.499999" height="449.999989" fill-opacity="1"/><rect x="-37.5" width="450" fill="#ffffff" y="-37.499999" height="449.999989" fill-opacity="1"/><rect x="-37.5" width="450" fill="#000000" y="-37.499999" height="449.999989" fill-opacity="1"/><g clip-path="url(#id1)"><rect x="-37.5" fill="url(#id2)" width="450" y="-37.499999" height="449.999989"/></g><g fill="#ff00ff" fill-opacity="1"><g transform="translate(5.159425, 107.140075)"><g><path d="M 8.96875 -30.84375 L 58.328125 -30.84375 L 58.328125 -15.140625 L 8.96875 -15.140625 Z M 8.96875 -43.1875 L 8.96875 -58.890625 L 58.328125 -58.890625 L 58.328125 -43.1875 Z M 8.96875 -43.1875 "/></g></g></g><g fill="#ff00ff" fill-opacity="1"><g transform="translate(90.178607, 107.140075)"><g><path d="M 8.40625 0 L 8.40625 -14.578125 L 25.234375 -14.578125 L 25.234375 -66.1875 L 8.40625 -66.1875 L 8.40625 -80.765625 L 58.890625 -80.765625 L 58.890625 -66.1875 L 42.0625 -66.1875 L 42.0625 -14.578125 L 58.890625 -14.578125 L 58.890625 0 Z M 8.40625 0 "/></g></g></g><g fill="#ff00ff" fill-opacity="1"><g transform="translate(175.197789, 107.140075)"><g><path d="M 34.21875 -81.890625 C 38.40625 -81.890625 42.21875 -81.289062 45.65625 -80.09375 C 49.09375 -78.894531 52.046875 -77.191406 54.515625 -74.984375 C 56.984375 -72.773438 58.890625 -70.117188 60.234375 -67.015625 C 61.578125 -63.921875 62.25 -60.460938 62.25 -56.640625 L 45.421875 -56.640625 C 45.421875 -59.785156 44.410156 -62.253906 42.390625 -64.046875 C 40.378906 -65.847656 37.65625 -66.75 34.21875 -66.75 C 30.695312 -66.75 27.90625 -65.847656 25.84375 -64.046875 C 23.789062 -62.253906 22.765625 -59.785156 22.765625 -56.640625 L 22.765625 -24.109375 C 22.765625 -20.972656 23.753906 -18.503906 25.734375 -16.703125 C 27.722656 -14.910156 30.507812 -14.015625 34.09375 -14.015625 C 37.613281 -14.015625 40.378906 -14.945312 42.390625 -16.8125 C 44.410156 -18.6875 45.421875 -21.117188 45.421875 -24.109375 L 62.25 -24.109375 C 62.25 -20.296875 61.578125 -16.835938 60.234375 -13.734375 C 58.890625 -10.628906 56.984375 -7.972656 54.515625 -5.765625 C 52.046875 -3.566406 49.09375 -1.867188 45.65625 -0.671875 C 42.21875 0.523438 38.363281 1.125 34.09375 1.125 C 29.832031 1.125 25.984375 0.523438 22.546875 -0.671875 C 19.109375 -1.867188 16.15625 -3.566406 13.6875 -5.765625 C 11.21875 -7.972656 9.304688 -10.628906 7.953125 -13.734375 C 6.609375 -16.835938 5.9375 -20.296875 5.9375 -24.109375 L 5.9375 -56.640625 C 5.9375 -60.460938 6.609375 -63.921875 7.953125 -67.015625 C 9.304688 -70.117188 11.21875 -72.773438 13.6875 -74.984375 C 16.15625 -77.191406 19.125 -78.894531 22.59375 -80.09375 C 26.070312 -81.289062 29.945312 -81.890625 34.21875 -81.890625 Z M 34.21875 -81.890625 "/></g></g></g><g fill="#00ffff" fill-opacity="1"><g transform="translate(18.821491, 110.294211)"><g><path d="M 8.96875 -30.84375 L 58.328125 -30.84375 L 58.328125 -15.140625 L 8.96875 -15.140625 Z M 8.96875 -43.1875 L 8.96875 -58.890625 L 58.328125 -58.890625 L 58.328125 -43.1875 Z M 8.96875 -43.1875 "/></g></g></g><g fill="#00ffff" fill-opacity="1"><g transform="translate(103.840673, 110.294211)"><g><path d="M 8.40625 0 L 8.40625 -14.578125 L 25.234375 -14.578125 L 25.234375 -66.1875 L 8.40625 -66.1875 L 8.40625 -80.765625 L 58.890625 -80.765625 L 58.890625 -66.1875 L 42.0625 -66.1875 L 42.0625 -14.578125 L 58.890625 -14.578125 L 58.890625 0 Z M 8.40625 0 "/></g></g></g><g fill="#00ffff" fill-opacity="1"><g transform="translate(188.859856, 110.294211)"><g><path d="M 34.21875 -81.890625 C 38.40625 -81.890625 42.21875 -81.289062 45.65625 -80.09375 C 49.09375 -78.894531 52.046875 -77.191406 54.515625 -74.984375 C 56.984375 -72.773438 58.890625 -70.117188 60.234375 -67.015625 C 61.578125 -63.921875 62.25 -60.460938 62.25 -56.640625 L 45.421875 -56.640625 C 45.421875 -59.785156 44.410156 -62.253906 42.390625 -64.046875 C 40.378906 -65.847656 37.65625 -66.75 34.21875 -66.75 C 30.695312 -66.75 27.90625 -65.847656 25.84375 -64.046875 C 23.789062 -62.253906 22.765625 -59.785156 22.765625 -56.640625 L 22.765625 -24.109375 C 22.765625 -20.972656 23.753906 -18.503906 25.734375 -16.703125 C 27.722656 -14.910156 30.507812 -14.015625 34.09375 -14.015625 C 37.613281 -14.015625 40.378906 -14.945312 42.390625 -16.8125 C 44.410156 -18.6875 45.421875 -21.117188 45.421875 -24.109375 L 62.25 -24.109375 C 62.25 -20.296875 61.578125 -16.835938 60.234375 -13.734375 C 58.890625 -10.628906 56.984375 -7.972656 54.515625 -5.765625 C 52.046875 -3.566406 49.09375 -1.867188 45.65625 -0.671875 C 42.21875 0.523438 38.363281 1.125 34.09375 1.125 C 29.832031 1.125 25.984375 0.523438 22.546875 -0.671875 C 19.109375 -1.867188 16.15625 -3.566406 13.6875 -5.765625 C 11.21875 -7.972656 9.304688 -10.628906 7.953125 -13.734375 C 6.609375 -16.835938 5.9375 -20.296875 5.9375 -24.109375 L 5.9375 -56.640625 C 5.9375 -60.460938 6.609375 -63.921875 7.953125 -67.015625 C 9.304688 -70.117188 11.21875 -72.773438 13.6875 -74.984375 C 16.15625 -77.191406 19.125 -78.894531 22.59375 -80.09375 C 26.070312 -81.289062 29.945312 -81.890625 34.21875 -81.890625 Z M 34.21875 -81.890625 "/></g></g></g><g fill="#ffffff" fill-opacity="1"><g transform="translate(11.990459, 108.717143)"><g><path d="M 8.96875 -30.84375 L 58.328125 -30.84375 L 58.328125 -15.140625 L 8.96875 -15.140625 Z M 8.96875 -43.1875 L 8.96875 -58.890625 L 58.328125 -58.890625 L 58.328125 -43.1875 Z M 8.96875 -43.1875 "/></g></g></g><g fill="#ffffff" fill-opacity="1"><g transform="translate(97.009641, 108.717143)"><g><path d="M 8.40625 0 L 8.40625 -14.578125 L 25.234375 -14.578125 L 25.234375 -66.1875 L 8.40625 -66.1875 L 8.40625 -80.765625 L 58.890625 -80.765625 L 58.890625 -66.1875 L 42.0625 -66.1875 L 42.0625 -14.578125 L 58.890625 -14.578125 L 58.890625 0 Z M 8.40625 0 "/></g></g></g><g fill="#ffffff" fill-opacity="1"><g transform="translate(182.028823, 108.717143)"><g><path d="M 34.21875 -81.890625 C 38.40625 -81.890625 42.21875 -81.289062 45.65625 -80.09375 C 49.09375 -78.894531 52.046875 -77.191406 54.515625 -74.984375 C 56.984375 -72.773438 58.890625 -70.117188 60.234375 -67.015625 C 61.578125 -63.921875 62.25 -60.460938 62.25 -56.640625 L 45.421875 -56.640625 C 45.421875 -59.785156 44.410156 -62.253906 42.390625 -64.046875 C 40.378906 -65.847656 37.65625 -66.75 34.21875 -66.75 C 30.695312 -66.75 27.90625 -65.847656 25.84375 -64.046875 C 23.789062 -62.253906 22.765625 -59.785156 22.765625 -56.640625 L 22.765625 -24.109375 C 22.765625 -20.972656 23.753906 -18.503906 25.734375 -16.703125 C 27.722656 -14.910156 30.507812 -14.015625 34.09375 -14.015625 C 37.613281 -14.015625 40.378906 -14.945312 42.390625 -16.8125 C 44.410156 -18.6875 45.421875 -21.117188 45.421875 -24.109375 L 62.25 -24.109375 C 62.25 -20.296875 61.578125 -16.835938 60.234375 -13.734375 C 58.890625 -10.628906 56.984375 -7.972656 54.515625 -5.765625 C 52.046875 -3.566406 49.09375 -1.867188 45.65625 -0.671875 C 42.21875 0.523438 38.363281 1.125 34.09375 1.125 C 29.832031 1.125 25.984375 0.523438 22.546875 -0.671875 C 19.109375 -1.867188 16.15625 -3.566406 13.6875 -5.765625 C 11.21875 -7.972656 9.304688 -10.628906 7.953125 -13.734375 C 6.609375 -16.835938 5.9375 -20.296875 5.9375 -24.109375 L 5.9375 -56.640625 C 5.9375 -60.460938 6.609375 -63.921875 7.953125 -67.015625 C 9.304688 -70.117188 11.21875 -72.773438 13.6875 -74.984375 C 16.15625 -77.191406 19.125 -78.894531 22.59375 -80.09375 C 26.070312 -81.289062 29.945312 -81.890625 34.21875 -81.890625 Z M 34.21875 -81.890625 "/></g></g></g></svg>